<svg width="36" height="36" viewBox="0 0 36 36" fill="none" xmlns="http://www.w3.org/2000/svg">
<g id="Frame 9">
<path id="&#244;&#129;&#154;&#160;" d="M12.2217 25.7998C11.488 25.7998 10.9342 25.6107 10.5605 25.2324C10.1868 24.8542 10 24.2959 10 23.5576V13.2422C10 12.5085 10.1868 11.9525 10.5605 11.5742C10.9342 11.1914 11.488 11 12.2217 11H19.502C20.2357 11 20.7894 11.1914 21.1631 11.5742C21.5368 11.9525 21.7236 12.5085 21.7236 13.2422V16.4414H20.3838V13.3311C20.3838 13.012 20.3018 12.7682 20.1377 12.5996C19.9736 12.4264 19.7253 12.3398 19.3926 12.3398H12.3379C12.0052 12.3398 11.7568 12.4264 11.5928 12.5996C11.4287 12.7682 11.3467 13.012 11.3467 13.3311V23.4756C11.3467 23.79 11.4287 24.0316 11.5928 24.2002C11.7568 24.3688 12.0052 24.4531 12.3379 24.4531H19.3926C19.7253 24.4531 19.9736 24.3688 20.1377 24.2002C20.3018 24.0316 20.3838 23.79 20.3838 23.4756V20.3516H21.7236V23.5576C21.7236 24.2959 21.5368 24.8542 21.1631 25.2324C20.7894 25.6107 20.2357 25.7998 19.502 25.7998H12.2217ZM16.6309 19.0254C16.4622 19.0254 16.3164 18.9639 16.1934 18.8408C16.0703 18.7178 16.0088 18.5697 16.0088 18.3965C16.0088 18.2233 16.0703 18.0752 16.1934 17.9521C16.3164 17.8245 16.4622 17.7607 16.6309 17.7607H23.5146L24.5332 17.8154L24.0273 17.3916L23.0156 16.4277C22.888 16.3184 22.8242 16.1748 22.8242 15.9971C22.8242 15.8421 22.8743 15.71 22.9746 15.6006C23.0749 15.4912 23.207 15.4365 23.3711 15.4365C23.5215 15.4365 23.6559 15.498 23.7744 15.6211L25.9893 17.918C26.0667 17.9954 26.1214 18.0752 26.1533 18.1572C26.1852 18.2347 26.2012 18.3145 26.2012 18.3965C26.2012 18.4785 26.1852 18.5583 26.1533 18.6357C26.1214 18.7132 26.0667 18.793 25.9893 18.875L23.7744 21.1719C23.6559 21.2904 23.5215 21.3496 23.3711 21.3496C23.207 21.3496 23.0749 21.2949 22.9746 21.1855C22.8743 21.0716 22.8242 20.9372 22.8242 20.7822C22.8242 20.6136 22.888 20.4723 23.0156 20.3584L24.0273 19.4014L24.5332 18.9775L23.5146 19.0254H16.6309Z" fill="#898989"/>
</g>
</svg>
